<svg width="16" height="16" viewBox="0 0 16 16" fill="none" xmlns="http://www.w3.org/2000/svg">
<mask id="mask0" mask-type="alpha" maskUnits="userSpaceOnUse" x="2" y="1" width="12" height="15">
<path fill-rule="evenodd" clip-rule="evenodd" d="M13.0038 6.23975C13.0038 10.0759 7.99997 15.008 7.99997 15.008C7.99997 15.008 2.99609 10.0759 2.99609 6.23975C2.99609 3.51557 5.23616 1.30762 7.99997 1.30762C10.7638 1.30762 13.0038 3.51557 13.0038 6.23975Z" fill="white"/>
</mask>
<g mask="url(#mask0)">
<path d="M6.61026 15.557C9.40453 15.557 11.6697 12.6863 11.6697 9.14518C11.6697 5.60405 9.40453 2.7334 6.61026 2.7334C3.81599 2.7334 1.55078 5.60405 1.55078 9.14518C1.55078 12.6863 3.81599 15.557 6.61026 15.557Z" fill="#57EDD7"/>
</g>
<path d="M13.4728 6.23798C13.4728 6.96259 13.3116 7.73922 13.0084 8.56112C12.5639 9.76589 11.8281 11.0363 10.8823 12.3312C10.3251 13.094 9.72893 13.8187 9.1327 14.4826C8.92385 14.7151 8.72971 14.9237 8.55514 15.1053C8.44953 15.2152 8.37329 15.2923 8.33128 15.3337C8.14781 15.5145 7.85034 15.5145 7.66687 15.3337C7.62486 15.2923 7.54861 15.2152 7.44301 15.1053C7.26844 14.9237 7.0743 14.7151 6.86544 14.4826C6.26922 13.8187 5.67309 13.094 5.11587 12.3312C4.17 11.0363 3.43425 9.76589 2.98978 8.56112C2.68656 7.73922 2.52539 6.96259 2.52539 6.23798C2.52539 3.25805 4.9758 0.842773 7.99907 0.842773C11.0223 0.842773 13.4728 3.25805 13.4728 6.23798Z" fill="#919EBF"/>
<path fill-rule="evenodd" clip-rule="evenodd" d="M7.87437 4.15527C8.97222 4.15527 9.86202 5.03232 9.86202 6.11443C9.86202 7.19653 8.97222 8.07358 7.87437 8.07358C6.77652 8.07358 5.88672 7.19653 5.88672 6.11443C5.88672 5.03232 6.77652 4.15527 7.87437 4.15527Z" fill="white"/>
</svg>
